<svg xmlns="http://www.w3.org/2000/svg" width="281" height="97" viewBox="0 0 281 97"
    class="dark:fill-grey-100 fill-grey-600 w-[280px] h-[80px]">
    <path
        d="M0.5 48.3385C0.587325 35.6718 5.70731 23.5474 14.7339 14.6127C23.7652 5.67804 35.9768 0.654572 48.7125 0.631592H52.2422V8.25642H48.763C38.0497 8.26102 27.7729 12.4756 20.1665 19.9809C12.56 27.4863 8.24433 37.6757 8.15701 48.3339H0.5V48.3385ZM15.2073 96.5923V88.9675H18.7371C29.4505 88.9537 39.7226 84.7345 47.3199 77.2246C54.9171 69.7147 59.2282 59.5253 59.3109 48.8716H66.9817C66.8944 61.5429 61.7744 73.6719 52.7386 82.6066C43.7028 91.5413 31.4819 96.5647 18.7417 96.5785L15.2073 96.5923ZM15.2073 81.9631V74.3383H18.7371C25.5484 74.3291 32.084 71.6542 36.9282 66.8881C41.7724 62.122 44.5301 55.6508 44.6082 48.8716H52.2744C52.1917 57.6685 48.6205 66.0746 42.3424 72.2655C36.0642 78.4564 27.5799 81.9356 18.7371 81.9447L15.2073 81.9631ZM15.2073 48.3385C15.2901 39.5371 18.8612 31.1217 25.144 24.9263C31.4314 18.7308 39.9202 15.2516 48.7676 15.247H52.2974V22.8718H48.7676C41.9517 22.8718 35.4069 25.5467 30.5581 30.3128C25.7093 35.0789 22.9471 41.5547 22.8689 48.3385H15.2073ZM15.1935 67.3385V59.7137H18.7233C21.6372 59.7137 24.4362 58.5785 26.5182 56.5516C28.6048 54.5248 29.809 51.7717 29.8825 48.8762V48.5959C29.8917 43.623 31.8864 38.8615 35.4253 35.3547C38.9643 31.8433 43.7579 29.8762 48.7584 29.8808H52.2882V37.5056H48.7584C45.84 37.501 43.0364 38.6317 40.9452 40.6585C38.854 42.6854 37.6452 45.443 37.5717 48.3431V48.6235C37.5671 53.5918 35.5816 58.3533 32.0472 61.8646C28.5175 65.376 23.7284 67.3523 18.7325 67.3569L15.1935 67.3385ZM102.247 39.6152C102.036 37.8457 101.19 36.4761 99.701 35.4971C98.2118 34.5182 96.3872 34.031 94.2225 34.031C92.6414 34.031 91.2626 34.2884 90.0814 34.7986C88.9003 35.3087 87.981 36.0119 87.3238 36.9082C86.6666 37.8044 86.3403 38.8201 86.3403 39.9599C86.3403 40.9113 86.5701 41.7294 87.0297 42.4096C87.4893 43.0898 88.0776 43.6551 88.7991 44.1009C89.5207 44.5468 90.2745 44.9144 91.065 45.1994C91.8555 45.4844 92.5817 45.7142 93.2435 45.8888L96.8698 46.8678C97.7982 47.1114 98.8369 47.4515 99.9813 47.8789C101.126 48.3109 102.224 48.8946 103.277 49.63C104.329 50.3699 105.198 51.3121 105.883 52.4657C106.567 53.6147 106.912 55.0303 106.912 56.7033C106.912 58.6336 106.411 60.3755 105.405 61.9336C104.398 63.4916 102.932 64.728 101.011 65.6472C99.0897 66.5664 96.7503 67.026 94.0065 67.026C91.4465 67.026 89.2358 66.6123 87.3698 65.7851C85.5038 64.9578 84.0376 63.8088 82.976 62.3334C81.9143 60.8581 81.3122 59.1438 81.1697 57.1905H85.6325C85.7474 58.5417 86.207 59.6539 87.0021 60.5318C87.7972 61.4096 88.8083 62.0623 90.0355 62.4851C91.2626 62.9079 92.5863 63.1194 94.0019 63.1194C95.6518 63.1194 97.1364 62.8482 98.4508 62.3104C99.7653 61.7681 100.804 61.0144 101.572 60.0446C102.339 59.0748 102.721 57.9396 102.721 56.6343C102.721 55.4486 102.39 54.4834 101.728 53.7388C101.066 52.9943 100.193 52.3922 99.1127 51.9234C98.0326 51.4592 96.8606 51.0501 95.6059 50.7008L91.2121 49.4461C88.4223 48.6418 86.2116 47.4974 84.5846 46.0083C82.9576 44.5192 82.1441 42.5705 82.1441 40.1667C82.1441 38.1674 82.6864 36.421 83.7757 34.9272C84.8649 33.4335 86.3265 32.2707 88.1695 31.4389C90.0125 30.607 92.0715 30.1933 94.3512 30.1933C96.6538 30.1933 98.699 30.6024 100.491 31.4251C102.284 32.2432 103.704 33.3646 104.757 34.7802C105.809 36.2003 106.365 37.8089 106.42 39.6106H102.247V39.6152ZM121.169 66.9616C118.752 66.9616 116.633 66.3871 114.813 65.2335C112.993 64.0799 111.573 62.4713 110.557 60.4031C109.541 58.3349 109.031 55.9174 109.031 53.1459C109.031 50.3561 109.541 47.9203 110.557 45.8383C111.573 43.7562 112.993 42.143 114.813 40.9894C116.633 39.8404 118.752 39.2613 121.169 39.2613C123.587 39.2613 125.705 39.8358 127.525 40.9894C129.345 42.1384 130.761 43.7562 131.781 45.8383C132.797 47.9203 133.307 50.3561 133.307 53.1459C133.307 55.9128 132.797 58.3303 131.781 60.4031C130.766 62.4713 129.345 64.0845 127.525 65.2335C125.705 66.3871 123.587 66.9616 121.169 66.9616ZM121.169 63.2664C123.007 63.2664 124.52 62.7976 125.705 61.8554C126.891 60.9133 127.769 59.6769 128.339 58.1418C128.909 56.6068 129.194 54.943 129.194 53.1551C129.194 51.3627 128.909 49.6943 128.339 48.15C127.769 46.6058 126.891 45.3557 125.705 44.3997C124.52 43.4483 123.007 42.9703 121.169 42.9703C119.331 42.9703 117.819 43.4483 116.633 44.3997C115.447 45.3511 114.569 46.6012 113.999 48.15C113.429 49.6943 113.144 51.3673 113.144 53.1551C113.144 54.9476 113.429 56.6068 113.999 58.1418C114.569 59.6769 115.447 60.9133 116.633 61.8554C117.819 62.793 119.331 63.2664 121.169 63.2664ZM140.008 30.6851V66.4055H135.89V30.6851H140.008ZM152.234 67.0306C150.538 67.0306 148.993 66.7089 147.61 66.0608C146.227 65.4174 145.128 64.4798 144.315 63.2526C143.501 62.0255 143.092 60.541 143.092 58.7945C143.092 57.2594 143.396 56.0139 143.998 55.0533C144.604 54.0927 145.409 53.339 146.424 52.7966C147.435 52.2497 148.552 51.8407 149.779 51.5649C151.007 51.2937 152.243 51.0731 153.484 50.9123C155.111 50.7009 156.434 50.5446 157.45 50.4343C158.466 50.324 159.21 50.1355 159.684 49.869C160.153 49.6024 160.392 49.1382 160.392 48.4718V48.3339C160.392 46.615 159.923 45.2775 158.99 44.3215C158.052 43.3702 156.637 42.8922 154.743 42.8922C152.781 42.8922 151.236 43.3242 150.12 44.1837C149.003 45.0431 148.217 45.9623 147.766 46.9413L143.86 45.5441C144.558 43.9171 145.491 42.644 146.659 41.734C147.826 40.8194 149.108 40.1805 150.496 39.8174C151.884 39.4497 153.254 39.2705 154.605 39.2705C155.465 39.2705 156.457 39.3716 157.579 39.5738C158.7 39.7761 159.79 40.1943 160.842 40.8194C161.895 41.449 162.768 42.3958 163.466 43.6643C164.165 44.9328 164.514 46.6288 164.514 48.7567V66.4055H160.396V62.7793H160.185C159.904 63.3629 159.44 63.9834 158.788 64.6452C158.135 65.3071 157.271 65.8724 156.191 66.3366C155.111 66.8008 153.792 67.0306 152.234 67.0306ZM152.859 63.3354C154.486 63.3354 155.86 63.0136 156.981 62.3748C158.103 61.7359 158.953 60.9087 159.528 59.8975C160.102 58.8864 160.392 57.8201 160.392 56.7079V52.9391C160.217 53.1505 159.836 53.339 159.247 53.5044C158.659 53.6745 157.983 53.817 157.225 53.9411C156.467 54.0652 155.727 54.1663 155.01 54.2536C154.293 54.3409 153.718 54.4145 153.272 54.4696C152.202 54.6075 151.204 54.8327 150.28 55.1406C149.357 55.4486 148.612 55.9082 148.047 56.5194C147.481 57.1307 147.201 57.958 147.201 59.0059C147.201 60.4353 147.734 61.5153 148.796 62.2415C149.867 62.9723 151.218 63.3354 152.859 63.3354ZM172.079 50.4021V66.5158H167.961V39.7255H171.937V43.9125H172.286C172.916 42.5521 173.867 41.4582 175.145 40.6263C176.423 39.7944 178.073 39.3808 180.099 39.3808C181.915 39.3808 183.501 39.7485 184.861 40.4885C186.221 41.2284 187.279 42.3452 188.037 43.839C188.791 45.3327 189.172 47.2216 189.172 49.4967V66.5204H185.054V49.7771C185.054 47.6721 184.507 46.0313 183.413 44.8501C182.319 43.6689 180.821 43.0806 178.914 43.0806C177.599 43.0806 176.427 43.3656 175.398 43.9355C174.368 44.5054 173.559 45.3373 172.966 46.4311C172.374 47.5204 172.079 48.8441 172.079 50.4021ZM201.278 67.0306C199.582 67.0306 198.038 66.7089 196.654 66.0608C195.271 65.4174 194.173 64.4798 193.359 63.2526C192.546 62.0255 192.137 60.541 192.137 58.7945C192.137 57.2594 192.44 56.0139 193.042 55.0533C193.649 54.0927 194.453 53.339 195.464 52.7966C196.475 52.2497 197.592 51.8407 198.819 51.5649C200.046 51.2937 201.283 51.0731 202.524 50.9123C204.151 50.7009 205.474 50.5446 206.49 50.4343C207.506 50.324 208.25 50.1355 208.724 49.869C209.192 49.6024 209.431 49.1382 209.431 48.4718V48.3339C209.431 46.615 208.963 45.2775 208.03 44.3215C207.092 43.3702 205.676 42.8922 203.783 42.8922C201.82 42.8922 200.276 43.3242 199.159 44.1837C198.042 45.0431 197.257 45.9623 196.806 46.9413L192.899 45.5441C193.598 43.9171 194.531 42.644 195.698 41.734C196.866 40.8194 198.148 40.1805 199.536 39.8174C200.924 39.4497 202.294 39.2705 203.645 39.2705C204.504 39.2705 205.497 39.3716 206.619 39.5738C207.74 39.7761 208.829 40.1943 209.882 40.8194C210.934 41.449 211.808 42.3958 212.506 43.6643C213.205 44.9328 213.554 46.6288 213.554 48.7567V66.4055H209.441V62.7793H209.229C208.949 63.3629 208.485 63.9834 207.832 64.6452C207.179 65.3071 206.315 65.8724 205.235 66.3366C204.155 66.8008 202.836 67.0306 201.278 67.0306ZM201.908 63.3354C203.535 63.3354 204.909 63.0136 206.03 62.3748C207.152 61.7359 208.002 60.9087 208.577 59.8975C209.151 58.8864 209.441 57.8201 209.441 56.7079V52.9391C209.266 53.1505 208.885 53.339 208.296 53.5044C207.708 53.6745 207.032 53.817 206.274 53.9411C205.516 54.0652 204.776 54.1663 204.059 54.2536C203.342 54.3409 202.767 54.4145 202.321 54.4696C201.25 54.6075 200.253 54.8327 199.329 55.1406C198.406 55.4486 197.661 55.9082 197.096 56.5194C196.53 57.1307 196.25 57.958 196.25 59.0059C196.25 60.4353 196.783 61.5153 197.845 62.2415C198.916 62.9723 200.267 63.3354 201.908 63.3354ZM216.969 66.4055V30.6851H239.853V36.1084H223.44V45.8061H238.281V51.2294H223.44V66.4009H216.969V66.4055ZM243.038 30.6851H250.957L261.56 56.5654H261.978L272.581 30.6851H280.5V66.4055H274.291V41.8673H273.96L264.088 66.2998H259.45L249.578 41.8121H249.247V66.4055H243.038V30.6851Z"></path>
</svg>